<svg width="16" height="14" viewBox="0 0 16 14" fill="none" xmlns="http://www.w3.org/2000/svg">
    <path d="M3.49047 10.0475L3.57963 9.70555L3.28709 9.50736C3.18475 9.43802 3.08721 9.37362 2.99303 9.31144C2.79076 9.1779 2.60399 9.0546 2.41847 8.91458L2.41661 8.91319C1.72074 8.39305 1.17101 7.79178 0.837642 7.04735L0.83753 7.0471C0.297837 5.8437 0.412364 4.70152 1.13132 3.57986L1.13141 3.57972C1.88917 2.39666 3.02191 1.63956 4.39945 1.14677L4.39953 1.14674C6.6984 0.323944 9.01563 0.283702 11.3387 1.04051C12.6904 1.48083 13.8346 2.17555 14.6764 3.26306C15.8422 4.77041 15.7653 6.67691 14.4777 8.11209L14.4777 8.11211C13.3949 9.31915 11.9842 9.99028 10.3507 10.3655L10.3505 10.3655C9.22404 10.6249 8.07448 10.6693 6.90117 10.5697C6.74101 10.5561 6.59884 10.598 6.50307 10.6371C6.40128 10.6787 6.30577 10.7359 6.22699 10.7989L6.22697 10.7988L6.22252 10.8025C4.99717 11.8053 3.58903 12.4422 2.01234 12.7654C1.94135 12.7797 1.87037 12.791 1.79435 12.8021C1.88345 12.7005 1.97129 12.6049 2.06176 12.5155L2.06184 12.5154C2.75357 11.8318 3.24721 10.9803 3.49047 10.0475Z" stroke="CurrentColor"/>
</svg>
